<svg viewBox="0 0 643.4 81.5" xmlns="http://www.w3.org/2000/svg"><g fill="#162b53" transform="translate(-2013.9 -164.8)"><path d="m2017 220.8a19.6 19.6 0 0 1 -1-4.4 14.2 14.2 0 0 1 -.4-4.9c.2-.6 1-2.4.7-2.9s-.1-1.6.1-2.5-1.1-1.3-1.3-.3-.6 1.6-.7 2.4c.3 2.7-1 6-.2 8.8.2.7.6 1.2.8 1.8s-.2 2 .3 3.1 3 .4 1.8-1.2m220.7-15.7a27.7 27.7 0 0 0 -3.2-10c-.4-.9-.6-2.8-2-2.4s1 3.4 1.1 4.1 1 2.7 1.5 4.1 1.3 2.9 1.1 3.8.2 2.1.1 3.2a58.5 58.5 0 0 0 -1.3 6.2c-1.3 2.8-1.1 6.4-2.6 9.1-1.1 1.2-2 2.5-2.9 3.8a8.4 8.4 0 0 0 -1.5 2 1 1 0 0 0 1.7.1c.9-1.5 2.4-2.5 3.4-3.9a31.3 31.3 0 0 0 3.1-7c1.1-3.8 2.3-9.1 1.7-13.1m-216.9-9.4c-.4.2-1 2.8-1.1 3.2a36.3 36.3 0 0 0 -1 5.5c-.6 2.7.8 5.8 0 8.4a10 10 0 0 0 -.2 4.5c.6 1.5.4 3.4.4 5s.1 5.3 1.3 6.8 1.3-1 1.1-2 .1-2.7-.2-4c-.8-3.1-.4-6.4-.8-9.6s.1-6.1.1-9a29.2 29.2 0 0 1 1.2-5.3c.3-1 1.3-3.5-.8-3.5m112.7 22.3c1.3-.9 2.9-1.4 4-2.6a10.6 10.6 0 0 1 3.9-2.6c2.9-1.8 7.5-2.7 10.9-3.1a48.3 48.3 0 0 1 8-1.4c1.6-.1 3.1-.6 4.7-.6s2.4-.8 3.7-.6a5.9 5.9 0 0 1 2.6-.4c1.2-.3 3.2-1.3 4.5-1a4.3 4.3 0 0 0 2.6-.2c1.7-1 2.7-2 .3-3a63.2 63.2 0 0 1 -6.6-2.8c-1.6-.9-3.8-.7-5.3-1.7s-5.1-1-7.2-1.8-4.7-1.1-6.8-2.1-3.5-.3-5.1-.9a13.9 13.9 0 0 0 -6.3-.3 6.4 6.4 0 0 0 2.4.8 13.7 13.7 0 0 1 4.6 1.5c2.5 1.5 5.7 2.2 7.2 4.8s1.1 1.1 1 2.6a5.7 5.7 0 0 1 -2.2 2.3c-1.9 1.1-5.3 1.2-7.4 1.1s-6-.1-8.7.7a32.3 32.3 0 0 1 -5.5 1.1c-1.9.4-3.8 1.2-5.7 1.3s-3.1.2-4.5 1.1-7.8 4.8-7.2 6.3c3.6 4.5 14 6.1 18.2 1.6m-4.8 3.9c-2.1-.7-4.8.3-6.8-.4s-11.3-3-8.5-7.6c.4-.8.4-1.6 1.5-2.1a9.8 9.8 0 0 0 2.6-1.3c.9-.4 1.7-1.2 2.6-1.6s2.7-.7 4-1.1 4.5-.8 6.7-1.7 6.4-1.7 8.5-1.3 3.4-.6 4.9-.6a32.8 32.8 0 0 0 4.6-.5c1.6-.3 8.5-.6 5.1-3.6a21 21 0 0 0 -9.3-4.7c-3.1-.8-6.2-2.7-9.4-2.7-1.1 0-3.1.4-4-.5s3-1 3.1-.9c2.5.6 5.5.2 8.2.5 6.7 1 13.2 1.8 19.6 4.2 3.6 1 7.2 1.7 10.7 3s6 2.1 8.4 4.3-2.3 3.4-4 4-2.7 0-4.2.6-2.7.7-4.1.7a39.2 39.2 0 0 0 -10.5 1.5c-1.1.4-2 0-3 .3a23 23 0 0 1 -3.8.8 49 49 0 0 0 -8.8 2.7c-2.9 1.3-5.1 3.5-7.7 5s-4.7 3.6-6.9 3.1zm-99.9-32.6c-.8-2-1.4.2-1.6.9a29.7 29.7 0 0 1 -1.9 4.8c.1 1.5-.5 3.1-.3 4.7a31 31 0 0 1 -.2 6.4 25.2 25.2 0 0 0 -.1 7.1c.3 1.6-.2 3.4.3 4.8s.7 4.4.7 6.6.2 4.5.2 6.7-.1 3.2.5 4 .3 1.5.7 2.2 1.6.4 1.6-.6-.1-4.3-.7-6-.6-.9-.2-2.1-.5-1.9-.3-2.9c.7-3.4-1-6.7-.8-10.4s.5-4.9.1-7.2a41.3 41.3 0 0 1 -.1-5.3c-.1-2.5-.3-5.9.7-8.1s2.2-4 1.5-5.9m198.6 33c2.4-10.2 4.1-19.9 1.1-30.1a33.5 33.5 0 0 0 -2.2-6.2 1 1 0 0 0 -1.8-.2c-.3.3 1 2 1.1 2.6a29.5 29.5 0 0 1 3.1 13.1 82.7 82.7 0 0 1 -.8 11.8c-1.1 4.3-1.2 10.2-4 13.9-1.2 1.9-2.5 3.9-3.6 5.8s-2.6 2.3-2.4 2.9 1.7.1 2.4-.3 3-4.6 4.3-6.4 2-4.6 2.8-6.9m-87.7.1c2.7-1 5.3-3 8.2-3.8a39.5 39.5 0 0 1 8.9-3.2 45.7 45.7 0 0 0 8.1-1.6c4.9-.6 10.6-1.2 15.3-3.1s6.9-9.3 2.1-12.5a50.4 50.4 0 0 0 -17.4-7.3 34.4 34.4 0 0 0 -8.7-1.5 59.7 59.7 0 0 0 -7.8-1.5c-.8-.1-1.9.6-2.7.4a4.9 4.9 0 0 0 -1.8-.3 11.7 11.7 0 0 1 -3.7-.3c-.9-.4-3.2-.2-4.3-.2s-3.2-.1-5 .1-6.3 1.6-6.8 4.5 1.7 4.9 4.4 6.4 3.5.4 5 .7a7.7 7.7 0 0 0 2.5.4 8.5 8.5 0 0 1 1.1-.3c1.7.4.2 1.7-.6 1.8s-3 .3-4.4.7-4.5 1.3-6.1 1.2-3 1-4.2 1.2c-3.2.8-6 2.3-9.1 3.5s-6.3 2.9-6.6 4.9 1.2 6.2 3.2 8.4a20.2 20.2 0 0 0 20.6 5.8c3.8-1.2 6.6-3.3 9.8-4.5zm-20.4 5.9a35.4 35.4 0 0 1 -7.1-3.7c-3.1-2-3.9-4.5-5.9-7.3s-2.1-4.3-1.1-5.9a4.8 4.8 0 0 1 2.4-2.5c.4-.3 2-1.6 2.5-1.6s2.6-1.5 3.8-1.7l4-1.7a11.9 11.9 0 0 1 4.8-1.1 5.4 5.4 0 0 1 3-.7c.6-.2 4.5-1.2 3.7-1.7s-2.5-1.5-3.8-2-2.9-3.6-3-6.3c.4-.8.3-1.7.8-2.5a14.4 14.4 0 0 0 1.2-1.3c1-1.5 2.9-1.7 4.5-2.1s5.1-.8 7.5-.2c5.8 1.3 12-.3 17.8 1.2 2.8 1.3 6.1 1 9.1 1.4s6.2 1.7 8.9 2.7 6 2.5 8.6 4.1a7.9 7.9 0 0 1 2.6 1.9 14.3 14.3 0 0 0 1.8 2.2c.9 1.1.9 1.8 1.5 3.1a20.4 20.4 0 0 0 .3 2.7c.5 1.4-2.4 5.5-3.6 6.2a17 17 0 0 1 -7 2.3c-2.6.1-5.2 1.2-7.8 1.3s-2.6.1-3.9.4a11.6 11.6 0 0 1 -4.1 1.1 21.4 21.4 0 0 0 -8.6 2.4 38.5 38.5 0 0 0 -8.7 4c-2.5 1.6-5.6 2.4-8.2 3.9-4.7 2-11.4 3.4-16 1.3zm-83.3 12.2a23 23 0 0 0 -2.1-5.8c-.7-1.4-1.8-5.7-1.4-7.3a7.1 7.1 0 0 0 -.4-2.1c-.2-1-.1-2-.3-3a19 19 0 0 1 .1-7.1c-.1-2.2-.4-5.3.2-7.3s-.3-4.5-.1-6.8 1.2-5.8 1.7-8.7c.3-1 2.5-6 .3-5.9s-1.5 5.3-2.4 7.3a8.2 8.2 0 0 0 -1 3.5 4.7 4.7 0 0 1 -.6 2.2c-.2.7.2 1.6.1 2.4s.6 3.9-.2 5.7.3 2.5.3 3.5a28.1 28.1 0 0 1 -.4 4.4 39.1 39.1 0 0 0 .1 7.7c.2 2.6 1.2 5 1.3 7.5s.2 2.6.6 3.9 1.2 2.6 1.2 4 .7 1.6 1.2 2.4 2.6.9 1.7-.6m29.4-.4c-1.8-2.9-3.8-5.5-5.2-8.6a20.4 20.4 0 0 1 -2-4.2 19.2 19.2 0 0 1 -1.3-4.6c-1.4-3.1-1.3-6.8-2-10.1a48.5 48.5 0 0 1 .3-4.9c.2-1.7.7-3.5.9-5.2s.3-3.1 1.2-4.4 1.9-3.9 3-5.7 1.8-2.7 2.7-4.1 2.1-1.8 1.1-3.4-2.2 2.1-2.6 2.5-2.2 3.4-3.2 5.2c-2.8 3.8-2.9 7.6-4.5 11.7.1 1.5-.6 2.9-.6 4.4s.1 4.8.3 7.3a36.1 36.1 0 0 0 2.1 9.1c-.1 1.6 1.2 3.1 1.5 4.8a4.6 4.6 0 0 0 .9 2.2c1 1 1.1 2.3 2.1 3.2s2.2 3.1 3 4.9 3.8 1.3 2.2-.1m10.2-3.8c-.7-1.1-1.6-1.5-2.1-2.7a30.7 30.7 0 0 0 -2.4-4.7 55.7 55.7 0 0 1 -3.8-7.8c-1.3-2-.7-5.3-.9-7.6a22.7 22.7 0 0 1 .6-8.5c.1-3.4 3-6.3 4.6-9.1s4.1-6 6.4-9.1a3.5 3.5 0 0 0 1.5-1.7c.2-.7-.3-1.6-1.1-1s-3.2 2.9-4.1 4.6-2.1 3.1-3 4.8-2.9 3.9-4.1 5.9-2.2 6.7-2.7 10.1c-.3 1.8.7 3.7.3 5.5a13.5 13.5 0 0 0 .6 5.8c.6 1.7 2 3.1 2.2 4.9a51.5 51.5 0 0 1 2.9 6.2c.4.6.7 1.4 1.1 2s.8 2.2 1.6 2.9.7 1.2 1.7 1.3 1.2-1.1.8-1.7m-4.5 2c-.6-1.6-.7-2.7-1.9-4s-2.1-3-2.1-4.3-1.7-2.9-2-4.5-1.7-2.9-1.8-4.4-1-3.3-1.2-4.9a35.3 35.3 0 0 1 -.8-4.9 24.3 24.3 0 0 1 .9-10.2 4 4 0 0 1 .2-1.4c-.1-2.6 2.2-6.4 3.6-8.4s6.3-6.8 6.2-7.1-5.8 4.9-6.7 5.6-2.2 3.2-2.6 4.5a20.2 20.2 0 0 0 -2 4.9c.1 1.5-1 3-1 4.5s-.6 4.5-.3 6.9.6 4.1.7 6.2 2.4 4.5 1.7 5.9 1.7 4.5 2.2 5.1.7 1.9 1.2 2.9 1.1 1.8 1.5 2.8 1.4 3.8 2.6 5.3.7 1.8 1.2 2 .5-2.3.4-2.6m-27 1.2a30.5 30.5 0 0 0 -2.2-3.1c-.7-1-.7-2.3-1.2-3.4s-.6-5-1.7-7.1-.1-3.9-.5-5.8-.6-5.7.1-7.6a29.1 29.1 0 0 0 -.1-4.9c.1-2.2 1.1-5.2.7-7.4a12.8 12.8 0 0 1 1-6.6c.4-2.9 2.3-5.2 3.1-7.7.1-.6.1-1.8-.6-2.1s-1.3 1.6-1.7 2.3c-1.2 3.6-3.1 6.7-3.6 10.5s-.1 5.8-.6 8.5.3 6.1-.2 9.1a23.5 23.5 0 0 0 .1 7.7c.6 2.9.6 5.9 1.5 8.7a53.2 53.2 0 0 0 3.5 8.5c.8.9.6 2.5 1.7 2.9s1.3-1.8.9-2.6m38-6.8c-.8-1.9-1.8-3.2-2.7-5.2s-2.5-3.5-2.9-5.6-2.5-4-2.2-6.2a14.1 14.1 0 0 0 -.6-3.3 7.6 7.6 0 0 1 .5-4.6 10 10 0 0 1 .6-2.7c.4-1.4.7-2.9 1-4.2s2.5-4.3 3.4-6.4 3.8-4.4 5.4-6.6 2.4-1.7 3.4-2.4 3.1-1.6 3.2-2.1-2-.2-2.2-.1a38.5 38.5 0 0 1 -3.6 2.5c-2 .7-3.5 3.4-4.9 4.9s-4.1 5.4-5.2 8.1c-2.2 5.2-3.4 9.7-3.1 15.4a38.8 38.8 0 0 0 2 6.7 27.1 27.1 0 0 1 2.2 4.2 9.9 9.9 0 0 1 1.9 3.8c.1 1.1 1.3 1.6 1.6 2.5s.6 1.7.8 2.5a2 2 0 0 0 1.5 1.5c2.2.6.2-2.5 0-2.8m-23.6 9.1a14.4 14.4 0 0 0 -3.6-5.9c-2.2-2.1-2.6-5-3.7-7.7a19.5 19.5 0 0 1 -1.7-6.1c-.1-2.2-1-4.9-.7-7.2s-.1-5.8.6-8.7 2-6.9 1.9-10.1c0-1.6 1.2-5.2 2.3-6.3s1.5-2.4 2.4-3.1 2.9-3.2.7-3.2c-5.1 4.5-6.9 10.8-7.9 17.2s-2.1 12.4-1.1 18.8c.3 1.8.2 3.8.6 5.6s1 4.9 1.9 7.1 3.7 4.4 4.9 7c.3.7 1.1 2.8 1.7 3.2s2.7 1.6 1.9-.6m-6.8-.2c-.8-2.1-1.1-4-2.9-5.6s-.6-1.2-1.1-1.8a10.6 10.6 0 0 1 -1.5-2.4 4.2 4.2 0 0 1 .1-2.4 6.3 6.3 0 0 0 -.6-1.9 6.5 6.5 0 0 1 -.9-3.4c.1-1.2-.8-2.5-.9-3.9s-.3-1.8-.6-2.7a51.2 51.2 0 0 1 1.3-15.5 33.5 33.5 0 0 0 1-4.1c.3-1.6 1.1-3.1 1.3-4.7.4-3.2 2.1-5.6 3.1-8.5a1 1 0 0 0 -1.5-1.2 18.5 18.5 0 0 0 -2.1 4.6c-1.2 3.7-3.2 8-3.4 11.9s-2 6.2-1.3 8.8a14.3 14.3 0 0 1 -.5 4.9 8.6 8.6 0 0 0 .4 3.6c.5 2.2.2 4.7.8 7s.9 6.3 2.4 8.7 2.4 4.7 3.9 6.8 1.4 4.1 2.6 3.8.7-1.3.3-2m37.4-9.9c-.7-1.1-1.7-1.5-2.4-2.4a2.9 2.9 0 0 1 -.7-2.1c0-.7-.8-1.1-1.2-1.7-2.1-2-2.3-4.8-3.9-7.2s-1-4.7-.8-7.3c-.3-1.1-.5-3.4.3-4.2s.7-2.1 1.5-3.2c.7-2.7 3.1-4.9 4.1-7.4s2.8-2.6 3.8-3.5 3.2-2.1 4.5-3.4 3.4-1.2 4.8-2.2 1-2.1 1.2-2.9 1.4-2 1.2-2.4-2.5.8-2.9 1.5a5.6 5.6 0 0 1 -3.3 3 23.8 23.8 0 0 1 -3.2 2c-2.3 2-5.9 4-7.3 6.7s-3.1 5.7-4.7 8.5-2.3 4.7-1.8 7.6c.4 5.7 1.3 10.6 4.5 15.5 1 2.3 2.7 4.4 3.9 6.4.2.3 1.7 2.2 1.9 1.7s1.2-1.5.4-2.7m8.3-.7a37.1 37.1 0 0 1 -2.9-3c-.7-.7-1.4-2.2-2.4-2.6s-2.5-2.9-2.8-4.1-2.1-3.1-2.8-3.8-1.4-5.3-1.1-6.7 2.5-5.2 3.9-7.5 2.5-2.1 3.4-3.5a10.6 10.6 0 0 1 3.8-3.6 36.1 36.1 0 0 0 3.9-2.6c.9-.7 2.9-.9 3.5-1.8s.8-2.6 1.2-4 1.2-2.8 1.9-4.5 1.9-1.5 2-2.8-2.1.5-2.4.8a60.7 60.7 0 0 0 -3.9 7.6c-.4 1.1-2.6 2.1-3.6 2.8a23 23 0 0 0 -4.4 2.9c-2.7 2.2-4.4 5.1-6.7 7.6s-1.5 2.7-2.2 4.1-2 2.2-1.6 3.5a11.4 11.4 0 0 1 -.3 3.9 15.1 15.1 0 0 0 .8 4.2c.8 2.2 3 3.8 3.9 6.2a58.8 58.8 0 0 0 5.8 7.2c.4.6 1.6 2.6 2.4 2.7s1.4-2.3.5-2.9m42.8-2.2c3.1-1.6 6.4-2.7 9.2-4.6a71.3 71.3 0 0 1 9.6-3.7c2.7-.8 5.4-1.1 8.1-1.9 5.5-.7 11.5-1.1 16.7-2.9a10.5 10.5 0 0 0 7.3-11.7c-1-1.8-.6-4.2-1.2-6.1s-3.4-3.9-4.4-4.4a26.9 26.9 0 0 0 -3.7-2.5c-1.2-.6-2.3-.9-3.5-1.4s-4.2-2.4-6.5-2.6a41.6 41.6 0 0 0 -15.2-4.7c-2.6-.7-5.5-.4-8.1-1.1s-4.9-1.5-6.6-1.4c-4.8.3-9.5-.7-14.2.8a19.7 19.7 0 0 0 -7.6 4.5c-1.3 1.3-3.4 4.4-2.9 6.5s-.3 2.1 0 3.1 1.2 1.5 1.3 2-4.6 2.4-6.4 3.2-4.7 1.6-6.5 3.5-3.5 2.4-3.5 3.9-4 2.8-3.1 5.2c.3.7-.3 1.4-.1 2.1a18.4 18.4 0 0 0 1.1 3.9 18.7 18.7 0 0 0 7.7 9c2.1 1 4 3.2 6.2 3.7s4.2 1.5 6.2 1.6a20.2 20.2 0 0 0 8.8.2c4.2-.6 7.5-3.3 11.4-4.4zm-14.4 6.2c-1.7.3-3.1-.2-4.6-.2s-3.8-1.5-5.6-1.8-3.4-1.8-5.4-3c-5.3-3.3-12.2-8-12.2-15.1-1.5-3.9 1.5-6.6 3.2-9.5.3-1 1.2-1.4 2.2-1.9a17.5 17.5 0 0 1 2.6-2.4 15.5 15.5 0 0 1 4.9-2.4c1.3-.6 5.7-1.5 5.3-3.2a10.1 10.1 0 0 1 .2-6.2c.6-3.6 5.7-7.8 9.1-8.8s5.5-1.2 8.2-1.8 5.9.7 8.7.2 7.4 1.6 11 1.3a14.8 14.8 0 0 1 4.6.8c1.7.5 3.5.6 5.3 1.2 3.4.9 6.5 2.7 9.8 3.6a34.5 34.5 0 0 1 8.3 3.4c2.1.6 3.6 2.4 5.4 3.4s1.9 2.8 3.2 3.6a2.4 2.4 0 0 1 1.2 2.9c-.2.8.9 2.9 1.2 3.7 2.1 5.6-1.1 11-5.8 14-2.7 1.7-7.5 2.4-10.7 2.2a38.8 38.8 0 0 1 -8.3 1.6c-6.2.1-13.5 2.9-18.6 5.9-3 1.4-6.2 2.7-9.2 4.3s-5.3 2.1-7.8 3.3a26 26 0 0 1 -6.1.7zm92.7-5.9c1.1-3 3.1-5.5 3.9-8.6a8.4 8.4 0 0 1 .6-3.1c-.2-1.2.5-2.3.5-3.5s0-2.6.3-3.9a17 17 0 0 0 0-6.7c-.6-2.4.3-5.4-1-7.8s-.6-3.6-1.5-5.2a35.8 35.8 0 0 0 -1.7-4.6c-1.2-2.6-2.7-6.1-4.7-8.2s-3-.5-2 .5 2.2 3.2 3.4 5.2c3.2 4.9 3.8 10.5 5.2 16.1s.5 11.3-.2 16.2-3.8 11.4-7.2 16.6c-.8 1.2-2.2 2.1-3.1 3.2a9.7 9.7 0 0 1 -3.5 3.7 30 30 0 0 0 -3.9 2.3c-.6.4-4.5 2.2-4.6 2.7s6.2-.8 6.9-1.5 2.6-1.7 3.8-2.7 3-2.9 4.3-4.3 3-4.2 4.5-6.2m-18.8 9.6c1.3-.6 2.4-2 3.8-2.5a8.5 8.5 0 0 0 2.9-2.4c1.6-2.9 4.5-4.8 5.8-8a12.1 12.1 0 0 1 1.7-3.2c1.2-1.2 1.4-2.6 2.2-4s1.3-4.7 1.3-7 .8-5 .7-7.7a19.3 19.3 0 0 1 -.2-3.1c.1-1.3-.7-2.9-.4-4.1s-1.2-3.7-2-4.9a11 11 0 0 0 -1.1-3.3c-1.6-3.3-3.8-6.3-5.8-9.4s-4.6-4.3-6.9-5.9-2.2-2-3.8-2 1.2 2.1 2 3c2 2.4 5.3 3.8 7.3 6.3l2.4 4c.5.8 1.2 1.3 1.7 2.2s.3 1.7.8 2 1.5 4.5 2.7 6.2c1.5 3.5.6 7 1 10.7-.4 2.2-.2 4.6-.8 6.8s-1.8 6.4-3.1 9c-4.1 6.8-8.6 14-16.6 16.9-2.2.8-4.6 1.4-6.8 2.3s-5-.1-7.3 1-3.7.6-5.4 1.2-3.5 1.2-5.3 1.1-3.7 1.2-5.4 1.5-1.5 1-.6 1.3 2.2-.3 3-.4c4-1.1 8.2-2.3 12.3-2.4s5.8-.7 8.8-1l5.2-1.8c1-.4 1.6-.1 2.5-.8s2.2-1.2 3.6-1.5m-52.5-5.1c.8.1.9-.5 1.6-.8s2.8-.7 4.1-1.6 4.8-2.1 7.2-2.8 5.5-1.5 8.3-1.8c1.3.1 2.5-.3 3.8-.3s3.2-.4 4.9-.9c5.2-1.5 11.6-1.5 15.7-5.4 2.1-2 3.3-4.5 4.8-6.8s.6-3 .7-4.3a39.2 39.2 0 0 0 -.1-4.4c.1-2.5-.4-6.4-1.7-8.6s-1.1-2.9-2.3-4.1-2.7-2.7-3.9-4.4-4.8-3.2-7.2-4.5-5.8-2.6-8.7-3.6a166.9 166.9 0 0 0 -21-6c-3-1-6.4-.6-9.6-1.1l-3.6-.4c-1.6-.3-3.4.2-5 .1-6.3 1.7-14.4 1.2-19.1 6.4a18.4 18.4 0 0 0 -5.1 9.1 8.2 8.2 0 0 1 -.8 1.6c-.5.8.2 2.1-.6 2.7s-.3 1-1.2 1.3l-3.4 1.7c-7.1 3.6-13.2 8-14.9 16.1a19.2 19.2 0 0 0 -.3 3 22.3 22.3 0 0 1 .7 3.4 12.1 12.1 0 0 0 2.1 3.4c1.1 1.8 2.2 3.5 3.4 5.2s5.3 4.5 8.7 6.3l2 1.4c.8.6.7.1 1.6.2s3.7 2 3.9.8-2-1.3-2.4-1.4-2.2-2.1-3.6-2.5a13.5 13.5 0 0 1 -6.2-4.3c-.7-.9-1.5-1.6-2.2-2.5s-1.1-1.9-1.8-3-3-3.3-3.6-5.5c-.8-5.4 1.3-9.9 4.9-14 1.5-.8 2.6-2.4 4.1-3.2a21.9 21.9 0 0 1 4.3-2.2c2.9-1.7 6.3-2 6.3-5.8.3-1.3 1.3-2.4 1.5-3.9a7.5 7.5 0 0 1 2-3.2c1.1-1.1 1.4-2.4 2.6-3.4s2.5-1.8 3.6-2.6 6.7-1.8 9.6-2.5a45.9 45.9 0 0 1 10.3-1.2c3.2 1 6.6.5 9.8 1.3 1.3.3 2.7.1 4 .4s1 1 1.9 1a8.7 8.7 0 0 1 2.9.6c2.7.8 5.4 1.7 8.2 2.4s3.2 1.5 4.7 1.7 3.5.7 4.6 1.6 6 2.2 8.6 3.8a10.6 10.6 0 0 1 3.4 3.5 21.4 21.4 0 0 1 4.1 4 44.9 44.9 0 0 1 1.8 4.5c.7 1.5.7 2.7 1.2 4s-.5 2.1-.1 3.2a14.3 14.3 0 0 1 0 4.1 15.6 15.6 0 0 1 -5.4 8.8 13.9 13.9 0 0 1 -5.3 2.9c-1.6.2-4.9.6-6.2 1.5-3.8 1.7-8.6 1.2-12.5 2s-7 1.1-9.9 2.7a25 25 0 0 0 -5.9 2.2 14.5 14.5 0 0 0 -4.8 2.1c-1.6 1.3-4.2 2.1-6 3.1s-4.1 2.6-6.4 3.2a24.3 24.3 0 0 1 -4.3 1c-3.1.1.3 1.2 1.6 1.2 4.3 0 7.7-3.2 11.5-4.4 1.4-1 2.5-2.3 4-2.6zm13.2 1.3a33.8 33.8 0 0 1 5.5-1.5c1.3-.7 2.6-.2 3.9-.5a20.3 20.3 0 0 1 7.1-1.3c2.7-.1 5.7-1 8.3-1.6a35 35 0 0 0 8.2-2.9 42.9 42.9 0 0 0 3.9-2.6c1.7-1.1 3.1-1.6 4.4-3.2 3.2-4.1 4.3-9.9 3.8-15.2s-2.7-12.7-6-17.6a12.8 12.8 0 0 0 -2.6-3.9c-1-1.5-2.9-2.3-4-3.7s-3.6-2.5-5.3-3.4a22.5 22.5 0 0 0 -5.3-2.3 11.6 11.6 0 0 1 -3.5-1.3c-1.7-1-3.9-1.2-5.7-1.8s-6-1.7-9.2-2.7-6.7-1-9.9-1.5-4-.1-5.9-.4-4.3-.5-4.8 0 6.1 1.5 7.2 1.5a17.4 17.4 0 0 1 4.8.8c1.7.4 3.6.1 5.2.6s2.6.4 3.9.8 3.8 1.5 5.8 1.8 6.6 2.4 9.8 3.4c5.9 1.8 12 4.8 16.1 9.7 2.4 2.9 3.6 6.7 5 10.1s3.1 6.8 2.2 9.5.2 6.3-.8 8.7-3.2 6.3-5.3 7.3-6.2 4.2-9.9 4.9-5.8 1.4-8.5 2-7.3 1.3-10.9 1.9a66.5 66.5 0 0 0 -11.3 3.1c-3.4 1.2-7.6 1.9-10.2 4.5a23.3 23.3 0 0 1 -3.7 2.4c-1.6 1-.2 3.1 1 1.8s5.7-4.3 8.3-4.8 5.6-2.2 8.3-3.1zm4.7 5.3a61.8 61.8 0 0 0 -9.9 4.3c-.2.1-4.4 2.1-3.9.3s2.6-1.7 3.4-2.3 6.4-4.1 9.2-4 3.4-1 4.8-1.3 2.7.2 4.1-.2a51.1 51.1 0 0 1 9.6-1.3l9.1-2.6c3-.9 5.4-3.4 8.1-4.9a16.9 16.9 0 0 0 6.7-8.4c.6-1.9 1.8-3.6 2-5.7a30.7 30.7 0 0 0 1-3.5c1.3-2 .8-5.2.7-7.4a24.7 24.7 0 0 0 -1.2-7.8c-.5-1.5-.6-3.3-1.5-4.6s-2.1-2.7-3-4.1c-2.4-3-5.5-5.4-8.4-8s-5.2-4.2-8.2-5.4a44.8 44.8 0 0 0 -4.9-2c-1.6-.7-3.2-.4-4.8-1.3a18.1 18.1 0 0 0 -8.1-2.7c-.4-.1-3.7-.5-3.7-.8 1-2 6.7-.4 8.1.1a27.1 27.1 0 0 1 4.5 2c1.6.9 3.5.9 5.2 1.6s6 2.1 8.7 3.9 5.2 4.3 7.9 6.5 5 5.5 7.6 8.1 2.4 5.6 3.2 8.2a73 73 0 0 1 1 8.6c.1 2.2-.6 4.4-.6 6.6-2.6 5.1-2.8 11-7.2 15.1-.4.7-1.3 2.2-2.1 2.4a10.3 10.3 0 0 0 -2.7 1.4 24.8 24.8 0 0 1 -5.9 3.8c-1.7.9-5.2 2.7-7.1 2.4s-3.1 1-4.5 1.2a5.8 5.8 0 0 1 -2 .1 22.1 22.1 0 0 0 -3.2.6c-1.6.3-3.2.3-4.9.6a15.7 15.7 0 0 0 -7.2 1.1"/><path d="m2298.2 185.2-1.1 6.3a1.2 1.2 0 0 1 -1.2 1.1h-.1c-1.7-.1-8.8-.7-13-.7s-5.5.5-5.5 4c0 1.3.6 1.9 3.2 3.6l7.2 4.7c4.7 3 6.6 6.3 6.6 9.9 0 11.3-8.9 15.9-19.3 15.9a45.3 45.3 0 0 1 -11.7-1.4 1.1 1.1 0 0 1 -1-1.1v-.2l1.1-6.1a1.3 1.3 0 0 1 1.3-1.2h.2c2.5.2 9.2.7 11.7.7s6.4-1.1 6.4-5.1c0-1.4-.7-2.7-3.2-4.3l-7.6-5a11.4 11.4 0 0 1 -5.6-9.6c0-10.8 8.9-14 18.2-14a64.4 64.4 0 0 1 12.9 1.4.9.9 0 0 1 .7.9v.2z"/><path d="m2343.1 184.5-7.7 43.6a1.6 1.6 0 0 1 -1.5 1.2h-8.1a.9.9 0 0 1 -1-1v-.2l3.1-17.9h-15.3l-3.1 17.9a1.6 1.6 0 0 1 -1.5 1.2h-8.1a.9.9 0 0 1 -1-1v-.2l7.7-43.6a1.5 1.5 0 0 1 1.4-1.2h8.1a1 1 0 0 1 1.1 1v.2l-2.9 16.5h15.3l2.9-16.5a1.5 1.5 0 0 1 1.4-1.2h8.1a1 1 0 0 1 1.1 1z"/><path d="m2384.2 202.7-1.3 7.4c-2.5 14.5-10.2 19.9-21.9 19.9-8.5 0-15.3-5-15.3-15.2a25.7 25.7 0 0 1 .4-4.7l1.3-7.4c2.7-15.4 11.5-19.9 21.9-19.9 8.3 0 15.3 4.5 15.3 15.1a27.4 27.4 0 0 1 -.4 4.8zm-16.5-10.6c-5.2 0-8.1 2.9-9.5 10.6l-1.3 7.4a23.7 23.7 0 0 0 -.4 4.3c0 4.6 2.1 6.3 6.2 6.3s8.2-3.2 9.5-10.6l1.3-7.4a27.1 27.1 0 0 0 .4-4.1c.1-4.7-2.1-6.5-6.2-6.5z"/><path d="m2423.1 184.8-1.1 5.8a1.5 1.5 0 0 1 -1.4 1.2h-12.6c-2.5 0-4.1.5-4.7 4.2l-1 5.7h16.1a1 1 0 0 1 1 1.1v.2l-1 5.9a1.6 1.6 0 0 1 -1.5 1.2h-16.1l-1.2 6.6a8.6 8.6 0 0 0 -.2 1.6c0 2 1.1 2.6 3.4 2.6h12.6a1 1 0 0 1 1.1 1.1v.2l-1.1 5.8a1.4 1.4 0 0 1 -1.4 1.3 73.8 73.8 0 0 1 -12 .8c-6.4 0-13.2-2.3-13.2-10.3a18.1 18.1 0 0 1 .3-3l3.7-20.6c2.1-12 9-13.3 17.5-13.3a68.6 68.6 0 0 1 11.8.8c.7.1 1.1.3 1.1.9s-.1.1-.1.2z"/><path d="m2474.6 184.9-1.1 5.8a1.5 1.5 0 0 1 -1.4 1.2h-12.6c-2.9 0-4.2 1-4.7 4.2l-1 5.6h16.1a.9.9 0 0 1 1 1v.2l-1 5.9a1.6 1.6 0 0 1 -1.5 1.2h-16.1l-3.2 18.1a1.6 1.6 0 0 1 -1.5 1.2h-8.1a.9.9 0 0 1 -1-1v-.2l5.6-32.1c2-11.7 8.9-13.3 17.4-13.3a66.9 66.9 0 0 1 11.8.9c.7.1 1.1.4 1.1.9a2.7 2.7 0 0 0 .2.4z"/><path d="m2493.2 184.5-7.7 43.6a1.5 1.5 0 0 1 -1.4 1.2h-8.3a.9.9 0 0 1 -.9-.9v-.3l7.7-43.6a1.3 1.3 0 0 1 1.3-1.2h8.3a.9.9 0 0 1 1 .9v.2z"/><path d="m2538.4 184.5-7.5 42.5a2.9 2.9 0 0 1 -2.7 2.4h-5.2c-1.3 0-2.7-.2-3.4-1.9l-10.4-24.5a.6.6 0 0 0 -.5-.5c-.2 0-.3.1-.4.5l-4.4 25.1a1.6 1.6 0 0 1 -1.5 1.2h-7.3a1 1 0 0 1 -1-1.1v-.2l7.4-42.5a3 3 0 0 1 2.8-2.4h4.7a3.3 3.3 0 0 1 3.3 1.9l10.7 25.5c.2.4.2.5.4.5a.5.5 0 0 0 .4-.6l4.7-26.2a1.5 1.5 0 0 1 1.4-1.2h7.3a1 1 0 0 1 1.1 1v.2z"/><path d="m2578.7 202.3-1.4 8c-2.5 14-9.5 19.6-23.2 19.6a89.3 89.3 0 0 1 -13-.9 1.5 1.5 0 0 1 -1.5-1.5 2.3 2.3 0 0 1 .1-.6l7.3-41a2.3 2.3 0 0 1 2.2-2.2 96.9 96.9 0 0 1 13.4-.9c10.3 0 16.7 5.5 16.7 15.1a22.6 22.6 0 0 1 -.6 4.4zm-17.9-10.6h-4.4l-5.1 29h4.4c6 0 9.5-2.2 11-10.6l1.4-8a20.9 20.9 0 0 0 .4-3.7c-.1-5.1-3.1-6.7-7.7-6.7z"/><path d="m2617.4 184.8-1.1 5.8a1.5 1.5 0 0 1 -1.4 1.2h-12.6c-2.5 0-4.1.5-4.7 4.2l-1 5.7h16.1a1 1 0 0 1 1 1.1v.2l-1 5.9a1.6 1.6 0 0 1 -1.5 1.2h-16.1l-1.2 6.6a8.6 8.6 0 0 0 -.2 1.6c0 2 1.1 2.6 3.4 2.6h12.6a1 1 0 0 1 1.1 1.1v.2l-1.1 5.8a1.4 1.4 0 0 1 -1.4 1.3 73.8 73.8 0 0 1 -12 .8c-6.4 0-13.2-2.3-13.2-10.3a18.1 18.1 0 0 1 .3-3l3.7-20.6c2.1-12 9-13.3 17.5-13.3a68.6 68.6 0 0 1 11.8.8c.7.1 1.1.3 1.1.9s-.1.1-.1.2z"/><path d="m2646.8 210.5 6.3 17.5a1.4 1.4 0 0 1 .1.5 1 1 0 0 1 -1.1.9h-9c-.7 0-.7-.6-1-1.2l-5.6-15.7h-5.6l-2.7 15.7a1.6 1.6 0 0 1 -1.5 1.2h-8.1a.9.9 0 0 1 -1-1v-.2l7.3-41.6c.4-2.1 1.3-2.7 3.3-3a92.1 92.1 0 0 1 12.8-.8c9.3 0 16.2 3.5 16.2 11.8s-3.1 13.4-10.4 15.9zm-7.4-18.7-4.8.2-2.1 11.9h4.3c6.1 0 9.9-1.5 9.9-8 0-3.2-2.4-4.2-7.3-4.2z"/></g></svg>